<svg width="42" height="42" viewBox="0 0 42 42" fill="none" xmlns="http://www.w3.org/2000/svg">
<path d="M14.1004 27.6065C15.1575 28.9383 17.1249 28.9383 21.0597 28.9383H21.6952C25.63 28.9383 27.5974 28.9383 28.6545 27.6065M14.1004 27.6065C13.0434 26.2747 13.4059 24.2527 14.1311 20.2089C14.6467 17.3331 14.9046 15.8952 15.8835 15.0458M14.1004 27.6065C14.1004 27.6065 14.1004 27.6065 14.1004 27.6065ZM28.6545 27.6065C29.7116 26.2747 29.349 24.2527 28.6238 20.2089C28.1082 17.3331 27.8503 15.8952 26.8714 15.0458M28.6545 27.6065C28.6545 27.6065 28.6545 27.6065 28.6545 27.6065ZM26.8714 15.0458C25.8925 14.1963 24.4934 14.1963 21.6952 14.1963H21.0597C18.2615 14.1963 16.8624 14.1963 15.8835 15.0458M26.8714 15.0458C26.8714 15.0458 26.8714 15.0458 26.8714 15.0458ZM15.8835 15.0458C15.8835 15.0458 15.8835 15.0458 15.8835 15.0458Z" stroke="black" stroke-width="1.5"/>
<path d="M19.1094 17.5982C19.4395 18.9195 20.3303 19.8662 21.3774 19.8662C22.4245 19.8662 23.3152 18.9195 23.6454 17.5982" stroke="black" stroke-width="1.5" stroke-linecap="round"/>
</svg>
