<svg xmlns="http://www.w3.org/2000/svg">

  <symbol id="shopping-cart" width="19" height="17" viewBox="0 0 19 17" fill="none" xmlns="http://www.w3.org/2000/svg">
  <path d="M2.10043 14.6065C3.15751 15.9383 5.12491 15.9383 9.05971 15.9383H9.6952C13.63 15.9383 15.5974 15.9383 16.6545 14.6065M2.10043 14.6065C1.04336 13.2747 1.40592 11.2527 2.13106 7.2089C2.64674 4.33312 2.90459 2.89524 3.88348 2.04576M2.10043 14.6065C2.10043 14.6065 2.10043 14.6065 2.10043 14.6065ZM16.6545 14.6065C17.7116 13.2747 17.349 11.2527 16.6238 7.2089C16.1082 4.33313 15.8503 2.89524 14.8714 2.04576M16.6545 14.6065C16.6545 14.6065 16.6545 14.6065 16.6545 14.6065ZM14.8714 2.04576C13.8925 1.19629 12.4934 1.19629 9.6952 1.19629H9.05971C6.26149 1.19629 4.86237 1.19629 3.88348 2.04576M14.8714 2.04576C14.8714 2.04576 14.8714 2.04576 14.8714 2.04576ZM3.88348 2.04576C3.88348 2.04576 3.88348 2.04576 3.88348 2.04576Z" stroke="black" stroke-width="1.5" />
  <path d="M7.10938 4.59821C7.43951 5.91954 8.33029 6.86621 9.37738 6.86621C10.4245 6.86621 11.3152 5.91954 11.6454 4.59821" stroke="black" stroke-width="1.5" stroke-linecap="round" />
  </symbol>

  <symbol id="notification-arrow" width="15" height="15" viewBox="0 0 15 15" fill="none" xmlns="http://www.w3.org/2000/svg">
    <path fill-rule="evenodd" clip-rule="evenodd"
                    d="M4.375 0.625L13.75 0.625C13.9158 0.625 14.0747 0.690848 14.1919 0.808058C14.3092 0.925269 14.375 1.08424 14.375 1.25V10.625C14.375 10.9702 14.0952 11.25 13.75 11.25C13.4048 11.25 13.125 10.9702 13.125 10.625V2.75888L1.69194 14.1919C1.44786 14.436 1.05214 14.436 0.808058 14.1919C0.563981 13.9479 0.563981 13.5521 0.808058 13.3081L12.2411 1.875L4.375 1.875C4.02982 1.875 3.75 1.59518 3.75 1.25C3.75 0.904822 4.02982 0.625 4.375 0.625Z"
                    fill="white" />
  </symbol>

    <symbol id="telegram-icon" width="21" height="17" viewBox="0 0 21 17" fill="none" xmlns="http://www.w3.org/2000/svg">
      <path d="M18.8039 0.56183L1.81266 7.11396C0.653073 7.5797 0.659782 8.22658 1.59991 8.51504L5.96224 9.87587L16.0554 3.50775C16.5327 3.21737 16.9687 3.37358 16.6103 3.69175L8.43282 11.0719H8.43091L8.43282 11.0728L8.13191 15.5693C8.57274 15.5693 8.76728 15.3671 9.01453 15.1285L11.1334 13.0681L15.5408 16.3235C16.3534 16.7711 16.9371 16.5411 17.1393 15.5712L20.0325 1.93608C20.3286 0.748706 19.5792 0.211081 18.8039 0.56183Z" fill="black" />
    </symbol>

    <symbol id="vk-icon" width="23" height="15" viewBox="0 0 23 15" fill="none" xmlns="http://www.w3.org/2000/svg">
    <path d="M22.4787 1.54265C22.22 2.35627 21.8711 3.06448 21.4341 3.70752L21.4523 3.67877C21.023 4.39433 20.5103 5.22105 19.9142 6.15894C19.4031 6.89941 19.1325 7.28274 19.1025 7.30894C18.9703 7.47473 18.8783 7.6779 18.8466 7.90119L18.8457 7.9079C18.8716 8.11106 18.9655 8.28835 19.1025 8.4206L19.4858 8.84802C21.5367 10.9557 22.6902 12.4085 22.9464 13.2065C22.9799 13.2947 22.9991 13.3963 22.9991 13.5026C22.9991 13.6886 22.9397 13.8601 22.8391 14.001L22.841 13.9981C22.6723 14.1716 22.4366 14.2789 22.1759 14.2789C22.1471 14.2789 22.1174 14.2779 22.0896 14.2751H22.0935H19.5721C19.5711 14.2751 19.5692 14.2751 19.5673 14.2751C19.2443 14.2751 18.9473 14.162 18.7144 13.9741L18.7173 13.9761C18.378 13.6972 18.0761 13.3953 17.8059 13.0676L17.7973 13.0561C17.3558 12.5571 16.9642 12.137 16.6223 11.7959C15.4838 10.7136 14.6437 10.1724 14.1019 10.1724C14.0818 10.1705 14.0588 10.1696 14.0348 10.1696C13.8767 10.1696 13.7291 10.2184 13.6074 10.3018L13.6103 10.2999C13.5106 10.4245 13.4503 10.5855 13.4503 10.7589C13.4503 10.7934 13.4522 10.826 13.457 10.8596V10.8557C13.4311 11.1566 13.4158 11.5064 13.4158 11.8601C13.4158 11.9741 13.4177 12.0872 13.4206 12.2003V12.184V13.2947C13.4301 13.3397 13.4359 13.3915 13.4359 13.4442C13.4359 13.6761 13.3305 13.8831 13.1656 14.0201L13.1647 14.0211C12.7938 14.1907 12.3606 14.2904 11.9035 14.2904C11.8058 14.2904 11.7099 14.2856 11.6151 14.277L11.6275 14.2779C10.1191 14.2492 8.71993 13.8074 7.53064 13.0628L7.56418 13.0819C6.11614 12.2022 4.91631 11.057 4.00205 9.70381L3.97618 9.66356C3.10793 8.51165 2.29814 7.21023 1.60814 5.8379L1.54105 5.69031C1.1376 4.92173 0.719763 3.97681 0.35943 3.00506L0.30193 2.82777C0.155305 2.39077 0.0489297 1.88285 0.00484635 1.35673L0.00292969 1.33277C0.00292969 0.848493 0.287874 0.606354 0.857763 0.606354H3.37818C3.40118 0.604438 3.42801 0.603479 3.4558 0.603479C3.69347 0.603479 3.91293 0.684938 4.08639 0.821979L4.08447 0.820063C4.27614 1.02994 4.41797 1.28773 4.48793 1.57523L4.4908 1.58673C4.95464 2.89677 5.44626 3.99694 6.01168 5.0511L5.94747 4.91981C6.40939 5.8494 6.92018 6.6496 7.50285 7.38848L7.4808 7.35877C7.99192 7.98616 8.39058 8.29985 8.6768 8.29985C8.68543 8.30081 8.69597 8.30081 8.70747 8.30081C8.84931 8.30081 8.97293 8.22415 9.04001 8.10915L9.04097 8.10723C9.11189 7.92515 9.1531 7.71335 9.1531 7.49294C9.1531 7.44598 9.15118 7.39902 9.14735 7.35302V7.35877V3.6414C9.12722 3.20344 9.01989 2.79423 8.84068 2.42719L8.84835 2.4454C8.72951 2.1924 8.58672 1.9739 8.4171 1.77935L8.41997 1.78319C8.2628 1.62602 8.15547 1.41998 8.12193 1.18998L8.12097 1.18423C8.12097 1.02131 8.19572 0.874687 8.31264 0.778854L8.3136 0.777896C8.42955 0.671521 8.5848 0.607313 8.75443 0.607313H8.7621H12.7353C12.7564 0.604438 12.7804 0.603479 12.8053 0.603479C12.9922 0.603479 13.1599 0.687813 13.2711 0.820063L13.272 0.821021C13.3707 1.00119 13.4292 1.21681 13.4292 1.4449C13.4292 1.48131 13.4273 1.51677 13.4244 1.55223V1.54744V6.5049C13.4225 6.5279 13.4215 6.55473 13.4215 6.58156C13.4215 6.7579 13.4704 6.92369 13.5547 7.06456L13.5528 7.06073C13.6228 7.16423 13.7397 7.23131 13.8719 7.23131C14.0406 7.21981 14.1949 7.16423 14.3243 7.07606L14.3214 7.07798C14.5821 6.89877 14.8063 6.69465 15.0008 6.46369L15.0047 6.4589C15.5864 5.80148 16.1231 5.07506 16.5907 4.30265L16.6281 4.23556C16.9578 3.68931 17.3143 3.01656 17.6372 2.3256L17.6966 2.18473L18.1241 1.3299C18.2726 0.902479 18.6713 0.601563 19.1399 0.601563C19.1581 0.601563 19.1763 0.601562 19.1945 0.602521H19.1916H21.713C22.3941 0.602521 22.6496 0.915896 22.4797 1.54265H22.4787Z" fill="black" />
    </symbol>

    <symbol id="button-arrow" width="50" height="14" viewBox="0 0 50 14" fill="none" xmlns="http://www.w3.org/2000/svg">
  <path d="M1 7H48.5M48.5 7L42.5 1M48.5 7L42.5 13" stroke="#EDEDED" stroke-width="1.5" stroke-linecap="round" stroke-linejoin="round" />
</symbol>

<symbol id="product-plus" width="17" height="17" viewBox="0 0 17 17" fill="none" xmlns="http://www.w3.org/2000/svg">
  <path d="M15.6098 8.56913L8.34153 8.56913M8.34153 8.56913L1.07324 8.56913M8.34153 8.56913L8.34153 1.30078M8.34153 8.56913L8.34153 15.8374" stroke="#0C0C0C" stroke-linecap="round" />
</symbol>

<symbol id="delete-icon" width="12" height="14" viewBox="0 0 12 14" fill="none" xmlns="http://www.w3.org/2000/svg">
  <rect x="1.5" y="3.5" width="3" height="10" stroke="#9B9B9B" />
  <rect x="4.5" y="3.5" width="3" height="10" stroke="#9B9B9B" />
  <rect x="7.5" y="3.5" width="3" height="10" stroke="#9B9B9B" />
  <rect x="1" y="1" width="10" height="1" fill="#9B9B9B" />
  <rect y="2" width="1" height="1" fill="#9B9B9B" />
  <rect x="11" y="2" width="1" height="1" fill="#9B9B9B" />
  <rect x="4" width="4" height="1" fill="#9B9B9B" />
</symbol>

<symbol id="product-mark" width="10" height="7" viewBox="0 0 10 7" fill="none" xmlns="http://www.w3.org/2000/svg">
  <path d="M8.44423 0.833374L3.24978 6.02782L0.888672 3.66671" stroke="#1A1D2B" stroke-width="1.35" stroke-linecap="round" stroke-linejoin="round" />
</symbol>
</svg>